<svg width="152" height="40" viewBox="0 0 152 40" fill="none" xmlns="http://www.w3.org/2000/svg">
<path d="M39.1658 3.65838V19.4949H21.334V3.65838C21.334 3.1292 21.5443 2.62169 21.9184 2.2475C22.2926 1.87331 22.8001 1.6631 23.3293 1.6631C23.7614 1.66153 24.1823 1.80078 24.5282 2.05977C24.8741 2.31877 25.1262 2.6834 25.2463 3.09847C25.5579 4.18498 26.2146 5.14055 27.1174 5.82078C28.0201 6.501 29.1196 6.86892 30.2499 6.86892C31.3802 6.86892 32.4798 6.501 33.3825 5.82078C34.2852 5.14055 34.942 4.18498 35.2536 3.09847C35.3737 2.6834 35.6258 2.31877 35.9717 2.05977C36.3176 1.80078 36.7384 1.66153 37.1705 1.6631C37.6997 1.6631 38.2072 1.87331 38.5814 2.2475C38.9556 2.62169 39.1658 3.1292 39.1658 3.65838Z" fill="#023E8A"/>
<path d="M55.0023 19.4949H39.1658V3.65837C39.1658 3.39615 39.2175 3.1365 39.3179 2.89426C39.4184 2.65203 39.5655 2.43196 39.7511 2.24665C39.9366 2.06134 40.1568 1.91442 40.3992 1.81429C40.6415 1.71415 40.9013 1.66278 41.1635 1.66309H55.0023C55.2646 1.66278 55.5243 1.71415 55.7666 1.81429C56.009 1.91442 56.2292 2.06134 56.4147 2.24665C56.6003 2.43196 56.7475 2.65203 56.8479 2.89426C56.9483 3.1365 57 3.39615 57 3.65837C57.0019 4.08886 56.8642 4.50838 56.6076 4.854C56.3509 5.19963 55.9891 5.45273 55.5765 5.57536C54.49 5.88692 53.5344 6.54369 52.8542 7.44639C52.174 8.3491 51.806 9.44869 51.806 10.579C51.806 11.7093 52.174 12.8089 52.8542 13.7116C53.5344 14.6143 54.49 15.271 55.5765 15.5826C55.9888 15.7051 56.3503 15.9579 56.6069 16.303C56.8635 16.6482 57.0014 17.0671 57 17.4972C57 18.027 56.7895 18.5351 56.4149 18.9098C56.0403 19.2844 55.5322 19.4949 55.0023 19.4949Z" fill="#0096C7"/>
<path d="M5.49754 1.66309H19.3364C19.5986 1.66278 19.8583 1.71415 20.1007 1.81429C20.343 1.91442 20.5633 2.06134 20.7488 2.24665C20.9343 2.43196 21.0815 2.65203 21.1819 2.89426C21.2824 3.1365 21.3341 3.39615 21.3341 3.65837V19.4949H5.49754C4.96773 19.4949 4.45962 19.2844 4.08498 18.9098C3.71035 18.5351 3.49989 18.027 3.49989 17.4972C3.49922 17.0656 3.63886 16.6455 3.89776 16.3002C4.15665 15.9548 4.52077 15.703 4.93525 15.5826C6.02176 15.271 6.97734 14.6143 7.65756 13.7116C8.33779 12.8089 8.7057 11.7093 8.7057 10.579C8.7057 9.44869 8.33779 8.3491 7.65756 7.44639C6.97734 6.54369 6.02176 5.88692 4.93525 5.57536C4.52038 5.45487 4.15597 5.20268 3.89704 4.85687C3.63811 4.51105 3.49871 4.09038 3.49989 3.65837C3.49989 3.39615 3.55157 3.1365 3.65199 2.89426C3.75241 2.65203 3.8996 2.43196 4.08513 2.24665C4.27066 2.06134 4.49089 1.91442 4.73325 1.81429C4.9756 1.71415 5.23532 1.66278 5.49754 1.66309Z" fill="#03045E"/>
<path d="M39.1658 35.3314V19.4949H21.334V35.3314C21.334 35.8606 21.5443 36.3681 21.9184 36.7423C22.2926 37.1165 22.8001 37.3267 23.3293 37.3267C23.7599 37.329 24.1796 37.1914 24.5253 36.9347C24.871 36.678 25.124 36.316 25.2463 35.9032C25.5579 34.8166 26.2146 33.8611 27.1174 33.1808C28.0201 32.5006 29.1196 32.1327 30.2499 32.1327C31.3802 32.1327 32.4798 32.5006 33.3825 33.1808C34.2852 33.8611 34.942 34.8166 35.2536 35.9032C35.3759 36.316 35.6289 36.678 35.9746 36.9347C36.3203 37.1914 36.74 37.329 37.1705 37.3267C37.6997 37.3267 38.2072 37.1165 38.5814 36.7423C38.9556 36.3681 39.1658 35.8606 39.1658 35.3314Z" fill="#0077B6"/>
<path d="M79.44 13.1H68.26V15.74H72.36V27H75.34V15.74H79.44V13.1ZM83.0592 14.92C84.1392 14.92 84.9792 14.14 84.9792 13.04C84.9792 11.96 84.1392 11.16 83.0592 11.16C81.9792 11.16 81.1192 11.96 81.1192 13.04C81.1192 14.14 81.9792 14.92 83.0592 14.92ZM81.5592 27H84.5192V16.46H81.5592V27ZM97.3973 27L93.1373 21.34L97.3373 16.46H94.0373L90.3973 20.62V12.38H87.4373V27H90.3973V22.22L94.1773 27H97.3973ZM111.177 16.46L109.577 24.06L107.837 16.46H104.537L102.817 24.06L101.197 16.46H98.1767L100.937 27H104.437L106.177 19.82L107.977 27H111.477L114.197 16.46H111.177ZM118.272 22.64H126.172C126.212 22.38 126.232 21.98 126.232 21.52C126.232 18.88 124.212 16.22 120.812 16.22C117.792 16.22 115.372 18.68 115.372 21.74C115.372 24.88 117.592 27.26 121.012 27.26C123.592 27.26 124.952 26.2 125.772 25L123.512 23.5C123.052 24.34 122.392 24.8 121.092 24.8C119.692 24.8 118.612 24.02 118.272 22.64ZM118.232 20.7C118.532 19.26 119.532 18.46 120.892 18.46C122.252 18.46 123.172 19.32 123.452 20.7H118.232ZM135.376 16.46L132.696 24.64L130.316 16.46H127.256L130.776 27H131.756L130.336 30.58H133.256L134.556 27L138.436 16.46H135.376Z" fill="#03045E"/>
</svg>
